<?xml version="1.0" encoding="UTF-8" standalone="no"?>
<!DOCTYPE svg PUBLIC "-//W3C//DTD SVG 1.1//EN" "http://www.w3.org/Graphics/SVG/1.1/DTD/svg11.dtd">
<svg width="100%" height="100%" viewBox="0 0 1200 800" version="1.1" xmlns="http://www.w3.org/2000/svg" xmlns:xlink="http://www.w3.org/1999/xlink" xml:space="preserve" xmlns:serif="http://www.serif.com/" style="fill-rule:evenodd;clip-rule:evenodd;stroke-linejoin:round;stroke-miterlimit:2;">
    <rect x="420.267" y="215.806" width="380.114" height="296.356" style="fill:white;"/>
    <path id="path116" d="M551.733,357.067C536.533,357.067 524.533,370.4 524.533,386.667C524.533,402.933 536.8,416.267 551.733,416.267C566.933,416.267 578.933,402.933 578.933,386.667C579.2,370.4 566.933,357.067 551.733,357.067ZM649.067,357.067C633.867,357.067 621.867,370.4 621.867,386.667C621.867,402.933 634.133,416.267 649.067,416.267C664.267,416.267 676.267,402.933 676.267,386.667C676.267,370.4 664.267,357.067 649.067,357.067Z" style="fill:rgb(114,137,218);fill-rule:nonzero;"/>
    <path id="path118" d="M778.667,133.333L421.333,133.333C391.2,133.333 366.667,157.867 366.667,188.267L366.667,548.8C366.667,579.2 391.2,603.733 421.333,603.733L723.733,603.733L709.6,554.4L743.733,586.133L776,616L833.333,666.667L833.333,188.267C833.333,157.867 808.8,133.333 778.667,133.333ZM675.733,481.6C675.733,481.6 666.133,470.133 658.133,460C693.067,450.133 706.4,428.267 706.4,428.267C695.467,435.467 685.067,440.533 675.733,444C662.4,449.6 649.6,453.333 637.067,455.467C611.467,460.267 588,458.933 568,455.2C552.8,452.267 539.733,448 528.8,443.733C522.667,441.333 516,438.4 509.333,434.667C508.533,434.133 507.733,433.867 506.933,433.333C506.4,433.067 506.133,432.8 505.867,432.533C501.067,429.867 498.4,428 498.4,428C498.4,428 511.2,449.333 545.067,459.467C537.067,469.6 527.2,481.6 527.2,481.6C468.267,479.733 445.867,441.067 445.867,441.067C445.867,355.2 484.267,285.6 484.267,285.6C522.667,256.8 559.2,257.6 559.2,257.6L561.867,260.8C513.867,274.667 491.733,295.733 491.733,295.733C491.733,295.733 497.6,292.533 507.467,288C536,275.467 558.667,272 568,271.2C569.6,270.933 570.933,270.667 572.533,270.667C588.8,268.533 607.2,268 626.4,270.133C651.733,273.067 678.933,280.533 706.667,295.733C706.667,295.733 685.6,275.733 640.267,261.867L644,257.6C644,257.6 680.533,256.8 718.933,285.6C718.933,285.6 757.333,355.2 757.333,441.067C757.333,441.067 734.667,479.733 675.733,481.6Z" style="fill:rgb(114,137,218);fill-rule:nonzero;"/>
</svg>
