<?xml version="1.0" encoding="utf-8"?>
<!-- Generator: Adobe Illustrator 25.4.1, SVG Export Plug-In . SVG Version: 6.00 Build 0)  -->
<svg version="1.1" id="Layer_1" xmlns="http://www.w3.org/2000/svg" xmlns:xlink="http://www.w3.org/1999/xlink" x="0px" y="0px"
	 viewBox="0 0 697.9 108.32" style="enable-background:new 0 0 697.9 108.32;" xml:space="preserve">
<style type="text/css">
	.st0{fill:#FFFFFF;}
</style>
<g>
	<g id="NsdcJG_00000060010585540931657330000003591332639274452876_">
		<g>
			<path class="st0" d="M48.57,55.69c-1.47-0.42-2.96-0.85-4.45-1.28c-14.24-4.1-28.48-8.19-42.71-12.29
				c-0.2-0.06-0.44-0.07-0.59-0.19C0.5,41.68,0,41.37,0,41.09c0-0.3,0.46-0.75,0.8-0.86c3.14-0.95,6.3-1.85,9.45-2.76
				c12.45-3.58,24.9-7.17,37.35-10.72c0.59-0.17,1.31-0.18,1.9-0.01c15.44,4.41,30.88,8.86,46.32,13.3
				c0.23,0.07,0.52,0.07,0.68,0.22c0.28,0.25,0.64,0.56,0.67,0.88c0.02,0.23-0.38,0.65-0.68,0.75c-1.31,0.44-2.65,0.79-3.98,1.17
				c-14.41,4.14-28.81,8.28-43.22,12.41C49.08,55.54,48.85,55.61,48.57,55.69z"/>
			<path class="st0" d="M80.58,49.38c0,3.08,0,6.05,0,9.02c0,3.22-0.07,6.44,0.02,9.65c0.06,2.04-0.81,3.51-2.32,4.72
				c-2.43,1.93-5.27,3.01-8.21,3.85c-8.45,2.42-17.09,2.86-25.81,2.36c-5.65-0.32-11.24-1.1-16.56-3.09
				c-2.08-0.78-4.07-1.89-5.95-3.08c-1.73-1.1-2.48-2.8-2.45-4.96c0.09-5.5,0.03-11,0.03-16.5c0-0.34,0-0.68,0-1.17
				c1.72,0.49,3.34,0.94,4.95,1.4c7.66,2.2,15.31,4.43,22.99,6.58c0.85,0.24,1.88,0.21,2.73-0.03c9.77-2.76,19.53-5.58,29.29-8.38
				C79.68,49.63,80.08,49.52,80.58,49.38z"/>
			<path class="st0" d="M2.42,45.43c0.2-0.02,0.27-0.04,0.34-0.02c2.42,0.49,2.42,0.49,2.42,2.93c0,3.22-0.03,6.44,0.02,9.65
				c0.01,0.7,0.24,1.41,0.47,2.08c0.35,1.01,0.85,1.97,1.16,2.99c0.4,1.31-0.12,2.6-1.22,3.37c-1.13,0.79-2.59,0.78-3.69-0.02
				c-1.08-0.78-1.54-2.07-1.17-3.4c0.19-0.66,0.39-1.35,0.73-1.94c0.83-1.44,0.99-2.96,0.96-4.58C2.37,52.82,2.42,49.16,2.42,45.43z
				"/>
		</g>
	</g>
	<g>
		<path class="st0" d="M153.05,75.84c-0.94,3.08-4.89,3.85-6.86,1.17c-0.85,1.33-1.98,2.09-3.61,1.71
			c-0.99-0.23-1.61-0.93-1.77-1.93c-0.24-1.52,0.49-2.6,1.79-3.4c-0.11-0.1-0.21-0.18-0.31-0.26c-2.12-1.8-1.69-5.11,0.82-6.31
			c0.19-0.09,0.36-0.14,0.28-0.44c-1.06-4.02-0.96-8.06-0.23-12.11c0.19-1.06,0.47-2.1,0.7-3.15c0.03-0.13,0.06-0.26,0.09-0.39
			c-2.62-0.7-3.18-3.61-1.49-5.27c-1.77-1.57-2.38-3.63-2.38-5.9c0-2.26,0.62-4.31,2.37-5.87c-1.78-1.79-0.98-4.63,1.5-5.26
			c-0.05-0.2-0.1-0.39-0.15-0.59c-1.01-3.86-1.48-7.78-1.03-11.77c0.09-0.81,0.25-1.61,0.39-2.41c0.04-0.22,0.02-0.34-0.2-0.46
			c-2.48-1.44-2.74-4.5-0.55-6.34c0.05-0.04,0.1-0.09,0.18-0.17c-1.1-0.67-1.81-1.58-1.83-2.9c-0.01-0.73,0.24-1.35,0.77-1.85
			c1.31-1.23,3.06-0.81,4.68,1.14c0.08-0.09,0.16-0.18,0.24-0.27c1.64-1.93,4.57-1.79,6.03,0.29c0.11,0.16,0.18,0.35,0.47,0.25
			c2.93-0.93,5.87-0.83,8.83-0.15c0.21,0.05,0.36,0.08,0.51-0.17c1.07-1.85,3.17-2.17,4.77-0.74c0.03,0.03,0.07,0.05,0.13,0.1
			C168.78,0.63,170.82,0,173.1,0c2.28,0,4.33,0.61,5.93,2.38c0.1-0.08,0.2-0.16,0.29-0.24c1.46-1.24,3.61-0.89,4.56,0.78
			c0.18,0.31,0.33,0.34,0.65,0.27c2.93-0.66,5.85-0.74,8.75,0.15c0.11,0.03,0.32-0.02,0.37-0.11c1.34-2.23,4.68-2.44,6.29-0.23
			c0.02,0.03,0.07,0.05,0.11,0.08c0.84-1.31,1.96-2.08,3.57-1.72c1.01,0.23,1.64,0.92,1.8,1.94c0.24,1.53-0.49,2.59-1.78,3.39
			c0.1,0.09,0.18,0.17,0.27,0.25c2.07,1.75,1.78,4.89-0.58,6.22c-0.21,0.12-0.33,0.21-0.27,0.5c0.84,3.85,0.68,7.7-0.05,11.55
			c-0.18,0.96-0.44,1.91-0.66,2.86c-0.03,0.12-0.05,0.24-0.07,0.35c2.57,0.66,3.22,3.56,1.48,5.26c1.77,1.58,2.38,3.63,2.38,5.91
			c0,2.26-0.62,4.3-2.37,5.86c1.65,2.44,1.21,4-1.5,5.28c0.14,0.55,0.28,1.11,0.41,1.67c0.85,3.69,1.2,7.41,0.7,11.17
			c-0.12,0.93-0.34,1.84-0.54,2.76c-0.05,0.22-0.04,0.34,0.19,0.45c2.64,1.29,3.04,4.52,0.79,6.42c-0.06,0.05-0.12,0.11-0.21,0.18
			c1.07,0.65,1.77,1.53,1.83,2.79c0.04,0.74-0.18,1.4-0.72,1.92c-0.74,0.72-1.64,0.87-2.61,0.61c-0.94-0.25-1.6-0.88-2.09-1.71
			c-1.95,2.65-5.9,1.97-6.86-1.11c-0.81,0.15-1.61,0.35-2.43,0.45c-2.1,0.27-4.19,0.11-6.25-0.38c-0.31-0.07-0.47-0.03-0.64,0.27
			c-0.95,1.66-3.11,2.01-4.56,0.77c-0.09-0.08-0.19-0.16-0.28-0.23c-2.52,3.14-9.22,3.22-11.76,0.09c-0.55,0.27-1.06,0.63-1.63,0.79
			c-1.32,0.36-2.63-0.26-3.33-1.49c-0.09-0.16-0.15-0.3-0.4-0.24C158.97,76.61,156.02,76.71,153.05,75.84z M195.81,68.79
			c0-0.19,0-0.35,0-0.51c0-2.33,0-4.66,0-7c0-16.75,0-33.5,0.01-50.25c0-0.35-0.02-0.54-0.47-0.54c-14.78,0.01-29.56,0.01-44.33,0
			c-0.39,0-0.48,0.11-0.48,0.49c0.01,19.12,0.01,38.25,0.01,57.37c0,0.14,0.02,0.29,0.03,0.44
			C165.66,68.79,180.71,68.79,195.81,68.79z"/>
		<rect x="162.71" y="36.29" class="st0" width="2.83" height="2.36"/>
		<rect x="174.03" y="36.29" class="st0" width="2.83" height="2.36"/>
		<g id="HsQcbR_00000049916552498819128690000015350830415722889875_">
			<g>
				<path class="st0" d="M156.71,30.73c0-1.75,0-3.42,0-5.18c0.66,0,1.3-0.03,1.95,0.01c0.45,0.02,0.61-0.12,0.58-0.58
					c-0.04-0.63-0.01-1.27-0.01-1.98c0.69,0,1.34-0.03,1.98,0.01c0.46,0.03,0.6-0.14,0.58-0.59c-0.03-0.63-0.01-1.26-0.01-1.97
					c0.57,0,1.08,0,1.6,0c1.09-0.01,0.94,0.13,0.95-0.98c0-0.5,0-1,0-1.54c5.99,0,11.92,0,17.92,0c0,0.68,0.02,1.34-0.01,2.01
					c-0.01,0.38,0.1,0.53,0.5,0.51c0.66-0.03,1.33-0.01,2.06-0.01c0,0.72,0.02,1.39-0.01,2.05c-0.01,0.39,0.12,0.52,0.51,0.5
					c0.65-0.03,1.3-0.01,2.05-0.01c0,0.64,0,1.25,0,1.86c0,0.68,0,0.68,0.7,0.68c0.59,0,1.17,0,1.8,0c0,1.72,0,3.41,0,5.18
					c-0.6,0-1.21,0-1.83,0c-0.68,0-0.68,0-0.68,0.66c0,8.01,0,16.02,0,24.03c0,0.23,0,0.45,0,0.77c-0.68,0-1.33,0.03-1.97-0.01
					c-0.45-0.02-0.61,0.11-0.59,0.57c0.04,0.63,0.01,1.27,0.01,1.98c-0.69,0-1.33,0.03-1.98-0.01c-0.46-0.03-0.6,0.13-0.58,0.58
					c0.03,0.63,0.01,1.26,0.01,1.97c-0.24,0-0.43,0-0.62,0c-2.99,0-5.97,0.01-8.96-0.01c-0.51,0-0.63,0.16-0.62,0.64
					c0.03,1.45,0.01,2.9,0.01,4.38c-4.27,0-8.51,0-12.82,0c0-0.2,0-0.4,0-0.6c0-7.19,0-14.39,0-21.58c0-0.64,0-0.65-0.64-0.65
					c-0.6,0-1.21,0-1.86,0c0-2.58,0-5.12,0-7.73c0.68,0,1.34-0.02,2.01,0.01c0.39,0.02,0.51-0.13,0.5-0.51
					c-0.02-1.32-0.02-2.64,0-3.96c0.01-0.45-0.16-0.56-0.57-0.54C158.04,30.75,157.41,30.73,156.71,30.73z"/>
			</g>
		</g>
	</g>
	<g id="fubdbh_00000021116431451864321110000002030128957785980559_">
		<g>
			<path class="st0" d="M442.64,36.41c0.3-1.4,0.3-1.4,1.91-1.7c0.04-0.39,0.08-0.79,0.13-1.19c0.2-1.64,0.98-2.93,2.34-3.86
				c0.59-0.41,1.2-0.81,1.84-1.13c3.18-1.62,4.81-4.29,5.32-7.74c0.05-0.33,0.11-0.67,0.16-1c0-0.02,0.02-0.04,0.06-0.11
				c0.48,0,0.98,0,1.55,0c-0.15,1.85-0.54,3.61-1.3,5.29c-0.96,2.13-2.59,3.59-4.57,4.73c-0.74,0.43-1.49,0.86-2.17,1.36
				c-1.23,0.89-1.69,2.17-1.67,3.65c1.6,0.37,1.6,0.37,1.88,1.71c1.72-0.15,3.34-0.65,4.86-1.48c0.89-0.48,1.74-1.04,2.64-1.51
				c3.77-1.97,7.62-2.43,11.53-0.44c2.81,1.43,4.73,3.77,6.26,6.46c1.86,3.27,2.85,6.85,3.71,10.47c1.16,4.92,2.02,9.89,2.07,14.97
				c0.03,2.28-0.13,4.56-0.77,6.76c-1.21,4.17-3.98,6.68-8.25,7.4c-3.96,0.67-8-1.21-10.03-4.71c-1.17-2.02-2.1-4.19-3.18-6.26
				c-0.91-1.75-2.05-3.34-3.59-4.61c-2.57-2.12-5.59-2.71-8.81-2.55c-3.94,0.2-7.04,2-9.27,5.19c-1.22,1.74-2.18,3.67-3.18,5.56
				c-0.82,1.53-1.5,3.14-2.75,4.39c-2.74,2.74-6.04,3.73-9.78,2.77c-3.72-0.95-6.13-3.39-7.18-7.1c-0.96-3.37-0.94-6.82-0.64-10.27
				c0.51-5.83,1.66-11.55,3.48-17.11c1.07-3.29,2.61-6.33,5.06-8.84c3.91-3.99,9.1-4.89,14.13-2.44c1.11,0.54,2.17,1.2,3.25,1.8
				C439.21,35.71,440.85,36.22,442.64,36.41z M431.59,58.91c0-1.58,0-3.08,0-4.67c1.6,0,3.14,0,4.65,0c0-1.73,0-3.36,0-5.07
				c-1.57,0-3.09,0-4.69,0c0-1.6,0-3.11,0-4.64c-1.69,0-3.3,0-5,0c0,1.56,0,3.08,0,4.68c-1.6,0-3.12,0-4.68,0c0,1.71,0,3.35,0,5.06
				c1.54,0,3.06,0,4.68,0c0,1.59,0,3.11,0,4.65C428.26,58.91,429.88,58.91,431.59,58.91z M467.36,47.29
				c-1.47-0.02-2.7,1.17-2.72,2.62c-0.02,1.48,1.21,2.76,2.66,2.75c1.51,0,2.71-1.2,2.71-2.7
				C470.02,48.49,468.84,47.31,467.36,47.29z M460.39,49.94c0-1.45-1.21-2.64-2.68-2.65c-1.44-0.01-2.7,1.23-2.68,2.64
				c0.02,1.52,1.21,2.73,2.68,2.73C459.18,52.66,460.39,51.44,460.39,49.94z M462.5,47.83c1.48,0.01,2.69-1.17,2.7-2.63
				c0.01-1.51-1.18-2.73-2.67-2.74c-1.49-0.01-2.7,1.2-2.69,2.7C459.85,46.66,461.02,47.83,462.5,47.83z M462.52,57.46
				c1.51,0,2.69-1.19,2.68-2.71c-0.01-1.44-1.26-2.66-2.69-2.64c-1.49,0.03-2.66,1.19-2.67,2.65
				C459.83,56.28,461.01,57.46,462.52,57.46z"/>
		</g>
	</g>
	<g id="xoBFmf.tif_00000037679091108224642990000018349034098238758815_">
		<g>
			<path class="st0" d="M568.83,64.97c-1.13,2.28-2.47,4.41-4.22,6.27c-5.06,5.37-11.29,8.03-18.66,7.91
				c-4.26-0.07-8.23-1.24-11.88-3.44c-0.36-0.22-0.68-0.27-1.1-0.17c-2.96,0.71-5.93,1.39-8.9,2.09c-0.47,0.11-0.55,0.03-0.44-0.43
				c0.72-3,1.4-6,2.11-9c0.08-0.34,0.04-0.6-0.14-0.9c-0.43-0.74-0.82-1.5-1.23-2.25c-0.85-1.97-1.53-3.99-1.9-6.11
				c-2.28-12.97,6.11-25.42,18.99-28.18c12.99-2.78,25.87,5.34,28.92,18.26c1.25,5.29,0.78,10.45-1.36,15.45
				C568.95,64.64,568.89,64.81,568.83,64.97z"/>
		</g>
	</g>
	<g id="qFjci0.tif_00000044887221334366348300000015901155324741038990_">
		<g>
			<path class="st0" d="M672.38,55.96c-0.92,0.85-1.19,1.68-1.17,2.84c0.05,3.96,0.01,7.92,0.03,11.88c0,1.29-0.18,2.43-1.56,3
				c-1.35,0.56-2.32-0.04-3.28-0.92c-5.25-4.79-10.9-8.98-17.69-11.37c-2.36-0.84-4.8-1.28-7.33-1.27c-0.16,0-0.33,0-0.49,0
				c1.34,0.19,1.8,1.71,1.64,2.88c-0.57,4.13,0.83,6.96,3.4,9.36c0.72,0.66,0.98,1.83,1.2,2.92c0.53,2.65-0.28,3.85-2.57,3.84
				c-2.86,0-5.73-0.01-8.59,0.04c-1,0.01-1.83-0.24-2.21-1.46c-1.82-5.78-3.64-11.57-5.52-17.56c-0.98,0-1.97,0-2.95,0.01
				c-1.32,0.01-2.44-0.25-2.96-1.61c-0.22-0.57-0.64-0.58-1.14-0.67c-4.51-0.84-7.19-4.26-7.23-9.14c-0.04-5.05,2.57-8.51,7.11-9.44
				c0.39-0.08,0.93,0.11,1.11-0.42c0.68-1.94,2.28-1.89,3.91-1.87c2.68,0.04,5.36,0.01,8.72,0.01c3.92-0.27,8.57,0.59,13.1-0.96
				c6.7-2.29,12.33-6.25,17.6-10.85c0.37-0.32,0.73-0.64,1.08-0.99c0.91-0.89,1.94-1.26,3.15-0.72c1.16,0.51,1.49,1.5,1.48,2.69
				c-0.01,4.14,0.03,8.29-0.03,12.43c-0.01,1.06,0.29,1.77,1.09,2.5C676.8,45.2,676.85,51.81,672.38,55.96z"/>
		</g>
	</g>
	<g>
		<g>
			<g id="Yg5oGL.tif_00000122709859549436426470000003616147013020035258_">
				<g>
					<path class="st0" d="M275.41,51.45v27.71c-8.87-4.2-17.59-8.32-26.36-12.47V40.15L275.41,51.45z"/>
					<path class="st0" d="M275.41,51.19v0.26l-26.36-11.3v-0.12C257.9,43.78,266.68,47.49,275.41,51.19z"/>
					<path class="st0" d="M289.15,56.45c0,1.81,1.47,3.28,3.28,3.28h11.19v6.98c-8.66,4.1-17.35,8.23-26.17,12.42V51.43l26.17-11.21
						v12.95h-11.19C290.63,53.17,289.15,54.64,289.15,56.45z"/>
					<path class="st0" d="M303.62,40.04v0.17l-26.17,11.21v-0.27C286.08,47.49,294.79,43.8,303.62,40.04z"/>
					<path class="st0" d="M249.95,38.39l26.43,11.33c-0.03,0.01-0.07,0.03-0.1,0.04c-8.77-3.76-17.58-7.52-26.59-11.37
						c-0.18-0.07-0.35-0.15-0.53-0.22c0.05-0.02,0.09-0.04,0.13-0.05L249.95,38.39z"/>
					<path class="st0" d="M303.67,38.14c-0.09,0.04-0.18,0.07-0.26,0.11c-7.62,3.23-15.06,6.39-22.51,9.55l22.28-9.55l0.37-0.16
						C303.6,38.11,303.63,38.13,303.67,38.14z"/>
				</g>
			</g>
			<g id="Yg5oGL.tif_00000080195717743612859450000017798992615163538586_">
				<g>
					<path class="st0" d="M340.41,51.44v27.72c-8.87-4.2-17.6-8.32-26.36-12.47v-6.97h13.18c1.81,0,3.28-1.47,3.28-3.28
						c0-1.81-1.47-3.28-3.28-3.28h-13.18V40.14L340.41,51.44z"/>
					<path class="st0" d="M340.41,51.19v0.25l-26.36-11.3v-0.11C322.89,43.78,331.66,47.49,340.41,51.19z"/>
					<path class="st0" d="M368.62,40.23v26.48c-8.65,4.11-17.35,8.23-26.17,12.43v-27.7L368.62,40.23z"/>
					<path class="st0" d="M368.62,40.04v0.18l-26.17,11.21v-0.28C351.08,47.49,359.78,43.8,368.62,40.04z"/>
					<path class="st0" d="M368.57,38.1l-0.35,0.15l-17.94,7.69l-0.82,0.35c-2.69,1.14-5.37,2.28-8.06,3.42l-26.41-11.32l-0.67-0.29
						c9.17-3.95,18.04-7.77,26.93-11.61C350.28,30.34,359.28,34.15,368.57,38.1z"/>
					<path class="st0" d="M314.99,38.39l26.41,11.32c-0.04,0.01-0.07,0.03-0.11,0.05c-8.77-3.76-17.58-7.52-26.59-11.37
						c-0.18-0.07-0.35-0.15-0.53-0.22c0.05-0.02,0.1-0.05,0.15-0.07L314.99,38.39z"/>
					<path class="st0" d="M368.67,38.14c-0.09,0.04-0.18,0.07-0.26,0.11c-6.13,2.6-12.14,5.15-18.13,7.69l17.94-7.69l0.35-0.15
						C368.61,38.12,368.63,38.13,368.67,38.14z"/>
				</g>
			</g>
			<g>
				<g>
					<path class="st0" d="M328.54,56.45c0,0.72-0.59,1.31-1.31,1.31h-34.79c-0.72,0-1.31-0.59-1.31-1.31s0.59-1.31,1.31-1.31h34.79
						C327.95,55.14,328.54,55.73,328.54,56.45z"/>
				</g>
			</g>
		</g>
		<g>
			<path class="st0" d="M303.56,38.1l-0.37,0.16L280.9,47.8c-1.5,0.64-3.01,1.28-4.52,1.92l-26.43-11.33l-0.65-0.28
				c9.17-3.96,18.05-7.79,26.95-11.62C285.28,30.34,294.27,34.15,303.56,38.1z"/>
		</g>
	</g>
	<g>
		<path class="st0" d="M7.29,90.19h10.05v1.7H9.12v4.21h7.6v1.6h-7.6v4.7h8.36v1.65H7.29V90.19z"/>
		<path class="st0" d="M25.32,94.26c0.3,0.19,0.64,0.52,1.02,0.99v-5.1h1.63v13.9h-1.53v-1.41c-0.39,0.62-0.86,1.07-1.4,1.35
			c-0.54,0.28-1.16,0.42-1.85,0.42c-1.12,0-2.09-0.47-2.91-1.42s-1.23-2.21-1.23-3.78c0-1.47,0.37-2.75,1.12-3.82
			c0.75-1.08,1.82-1.62,3.21-1.62C24.15,93.77,24.8,93.93,25.32,94.26z M21.53,101.83c0.46,0.73,1.19,1.09,2.2,1.09
			c0.78,0,1.42-0.34,1.93-1.01c0.5-0.68,0.75-1.65,0.75-2.91c0-1.28-0.26-2.22-0.78-2.83c-0.52-0.61-1.16-0.92-1.92-0.92
			c-0.85,0-1.54,0.33-2.07,0.98c-0.53,0.65-0.79,1.62-0.79,2.88C20.84,100.19,21.07,101.1,21.53,101.83z"/>
		<path class="st0" d="M32.21,93.95v6.7c0,0.52,0.08,0.94,0.24,1.26c0.29,0.6,0.84,0.91,1.64,0.91c1.15,0,1.93-0.53,2.35-1.58
			c0.23-0.57,0.34-1.34,0.34-2.33v-4.96h1.7v10.1h-1.6l0.02-1.49c-0.22,0.38-0.48,0.71-0.81,0.97c-0.63,0.53-1.41,0.79-2.31,0.79
			c-1.41,0-2.38-0.48-2.89-1.44c-0.28-0.52-0.42-1.2-0.42-2.07v-6.86H32.21z"/>
		<path class="st0" d="M47.92,94.48c0.71,0.55,1.14,1.5,1.29,2.86h-1.65c-0.1-0.62-0.33-1.14-0.69-1.55s-0.93-0.62-1.73-0.62
			c-1.08,0-1.85,0.53-2.32,1.58c-0.3,0.68-0.45,1.53-0.45,2.53c0,1.01,0.21,1.86,0.64,2.55s1.1,1.04,2.02,1.04
			c0.7,0,1.26-0.21,1.67-0.64c0.41-0.43,0.7-1.02,0.85-1.76h1.65c-0.19,1.34-0.66,2.32-1.42,2.94c-0.75,0.62-1.72,0.93-2.89,0.93
			c-1.32,0-2.37-0.48-3.16-1.45c-0.79-0.96-1.18-2.17-1.18-3.62c0-1.77,0.43-3.15,1.29-4.14c0.86-0.99,1.96-1.48,3.29-1.48
			C46.28,93.65,47.21,93.93,47.92,94.48z"/>
		<path class="st0" d="M56.32,97.93c0.39-0.05,0.65-0.21,0.78-0.49c0.08-0.15,0.11-0.37,0.11-0.65c0-0.58-0.21-1-0.62-1.26
			s-1-0.39-1.76-0.39c-0.88,0-1.51,0.24-1.88,0.72c-0.21,0.27-0.34,0.66-0.4,1.18h-1.58c0.03-1.25,0.43-2.12,1.21-2.6
			c0.78-0.49,1.67-0.73,2.7-0.73c1.19,0,2.15,0.23,2.89,0.68c0.74,0.45,1.1,1.16,1.1,2.11v5.82c0,0.18,0.04,0.32,0.11,0.42
			s0.22,0.16,0.46,0.16c0.08,0,0.16,0,0.25-0.01c0.09-0.01,0.19-0.02,0.3-0.04v1.25c-0.26,0.08-0.47,0.12-0.6,0.14
			c-0.14,0.02-0.33,0.03-0.57,0.03c-0.58,0-1.01-0.21-1.27-0.62c-0.14-0.22-0.24-0.53-0.29-0.93c-0.35,0.45-0.84,0.85-1.49,1.18
			s-1.36,0.5-2.14,0.5c-0.94,0-1.7-0.28-2.3-0.85c-0.59-0.57-0.89-1.28-0.89-2.13c0-0.94,0.29-1.66,0.88-2.18s1.35-0.83,2.3-0.95
			L56.32,97.93z M52.74,102.52c0.36,0.28,0.78,0.42,1.27,0.42c0.6,0,1.18-0.14,1.73-0.41c0.94-0.46,1.42-1.21,1.42-2.25v-1.36
			c-0.21,0.13-0.47,0.24-0.8,0.33c-0.33,0.09-0.65,0.15-0.96,0.19l-1.03,0.13c-0.62,0.08-1.08,0.21-1.39,0.39
			c-0.52,0.29-0.79,0.77-0.79,1.41C52.21,101.85,52.38,102.24,52.74,102.52z"/>
		<path class="st0" d="M61.98,91.13h1.72v2.82h1.61v1.39H63.7v6.59c0,0.35,0.12,0.59,0.36,0.71c0.13,0.07,0.35,0.1,0.66,0.1
			c0.08,0,0.17,0,0.26-0.01c0.09,0,0.2-0.01,0.33-0.03v1.35c-0.2,0.06-0.4,0.1-0.61,0.12c-0.21,0.02-0.44,0.04-0.68,0.04
			c-0.79,0-1.33-0.2-1.61-0.61c-0.28-0.41-0.42-0.93-0.42-1.58v-6.68h-1.37v-1.39h1.37V91.13z"/>
		<path class="st0" d="M67.01,90.19h1.73v1.92h-1.73V90.19z M67.01,93.99h1.73v10.05h-1.73V93.99z"/>
		<path class="st0" d="M78.62,94.95c0.89,0.87,1.34,2.14,1.34,3.83c0,1.63-0.39,2.97-1.18,4.03c-0.79,1.06-2.01,1.59-3.66,1.59
			c-1.38,0-2.47-0.47-3.29-1.41c-0.81-0.94-1.22-2.2-1.22-3.78c0-1.7,0.43-3.05,1.28-4.05c0.86-1,2-1.51,3.45-1.51
			C76.63,93.65,77.72,94.09,78.62,94.95z M77.56,101.67c0.41-0.85,0.62-1.8,0.62-2.84c0-0.94-0.15-1.71-0.45-2.3
			c-0.47-0.93-1.29-1.39-2.44-1.39c-1.03,0-1.77,0.4-2.24,1.19s-0.7,1.75-0.7,2.86c0,1.07,0.23,1.97,0.7,2.68s1.21,1.07,2.22,1.07
			C76.39,102.94,77.15,102.52,77.56,101.67z"/>
		<path class="st0" d="M82.04,93.95h1.61v1.43c0.48-0.59,0.98-1.02,1.52-1.27c0.53-0.26,1.13-0.39,1.78-0.39c1.43,0,2.4,0.5,2.9,1.5
			c0.28,0.55,0.42,1.33,0.42,2.35v6.48h-1.73v-6.36c0-0.62-0.09-1.11-0.27-1.49c-0.3-0.63-0.85-0.94-1.64-0.94
			c-0.4,0-0.73,0.04-0.99,0.12c-0.47,0.14-0.87,0.42-1.23,0.83c-0.28,0.33-0.47,0.68-0.55,1.03c-0.08,0.36-0.13,0.86-0.13,1.52v5.29
			h-1.7V93.95z"/>
	</g>
	<g>
		<path class="st0" d="M152.06,90.19h2.21l6.91,11.19V90.19h1.79v13.85h-2.11l-7.01-11.18v11.18h-1.79V90.19z"/>
		<path class="st0" d="M166.19,90.19h9.61v1.7h-7.73v4.21h6.8v1.65h-6.8v6.3h-1.88V90.19z"/>
		<path class="st0" d="M187.87,90.19v1.65h-4.67v12.2h-1.9v-12.2h-4.67v-1.65H187.87z"/>
		<path class="st0" d="M188.24,100.88c0.05,0.57,0.2,1,0.43,1.3c0.44,0.55,1.19,0.82,2.27,0.82c0.64,0,1.21-0.14,1.69-0.41
			s0.73-0.7,0.73-1.27c0-0.43-0.19-0.76-0.58-0.99c-0.25-0.14-0.74-0.3-1.48-0.48l-1.37-0.34c-0.88-0.21-1.52-0.45-1.94-0.72
			c-0.74-0.46-1.11-1.09-1.11-1.9c0-0.96,0.35-1.73,1.05-2.32c0.7-0.59,1.64-0.89,2.81-0.89c1.54,0,2.65,0.45,3.33,1.34
			c0.43,0.57,0.63,1.18,0.62,1.83h-1.6c-0.03-0.38-0.17-0.73-0.42-1.04c-0.4-0.44-1.09-0.67-2.08-0.67c-0.66,0-1.15,0.12-1.49,0.37
			s-0.51,0.57-0.51,0.97c0,0.44,0.22,0.79,0.67,1.05c0.26,0.16,0.63,0.29,1.13,0.41l1.14,0.27c1.24,0.3,2.08,0.58,2.5,0.86
			c0.66,0.43,0.99,1.12,0.99,2.05c0,0.9-0.35,1.67-1.04,2.33c-0.69,0.65-1.74,0.98-3.16,0.98c-1.52,0-2.6-0.34-3.23-1.02
			c-0.63-0.68-0.97-1.53-1.02-2.53H188.24z"/>
	</g>
	<g>
		<path class="st0" d="M264.57,90.19h5.99c1.63,0,2.79,0.48,3.48,1.45c0.4,0.57,0.61,1.23,0.61,1.98c0,0.87-0.25,1.59-0.75,2.15
			c-0.26,0.3-0.63,0.57-1.11,0.81c0.71,0.27,1.24,0.58,1.59,0.91c0.62,0.6,0.93,1.44,0.93,2.5c0,0.89-0.28,1.7-0.84,2.42
			c-0.84,1.08-2.18,1.62-4.01,1.62h-5.89V90.19z M269.85,96.05c0.8,0,1.42-0.11,1.87-0.33c0.7-0.34,1.05-0.97,1.05-1.87
			c0-0.91-0.37-1.51-1.11-1.83c-0.42-0.18-1.04-0.26-1.87-0.26h-3.38v4.29H269.85z M270.49,102.44c1.16,0,1.99-0.33,2.48-1
			c0.31-0.42,0.47-0.93,0.47-1.53c0-1.01-0.45-1.69-1.36-2.06c-0.48-0.19-1.12-0.29-1.91-0.29h-3.76v4.88H270.49z"/>
		<path class="st0" d="M277.31,90.19h1.7v13.85h-1.7V90.19z"/>
		<path class="st0" d="M288.87,94.95c0.89,0.87,1.34,2.14,1.34,3.83c0,1.63-0.39,2.97-1.18,4.03c-0.79,1.06-2.01,1.59-3.66,1.59
			c-1.38,0-2.47-0.47-3.29-1.41c-0.81-0.94-1.22-2.2-1.22-3.78c0-1.7,0.43-3.05,1.28-4.05c0.85-1,2-1.51,3.45-1.51
			C286.89,93.65,287.98,94.09,288.87,94.95z M287.82,101.67c0.41-0.85,0.62-1.8,0.62-2.84c0-0.94-0.15-1.71-0.45-2.3
			c-0.47-0.93-1.29-1.39-2.44-1.39c-1.03,0-1.77,0.4-2.24,1.19c-0.47,0.79-0.7,1.75-0.7,2.86c0,1.07,0.23,1.97,0.7,2.68
			c0.47,0.72,1.21,1.07,2.22,1.07C286.64,102.94,287.41,102.52,287.82,101.67z"/>
		<path class="st0" d="M298.97,94.48c0.71,0.55,1.14,1.5,1.29,2.86h-1.65c-0.1-0.62-0.33-1.14-0.69-1.55s-0.93-0.62-1.73-0.62
			c-1.08,0-1.85,0.53-2.32,1.58c-0.3,0.68-0.45,1.53-0.45,2.53c0,1.01,0.21,1.86,0.64,2.55c0.43,0.69,1.1,1.04,2.02,1.04
			c0.7,0,1.26-0.21,1.67-0.64s0.7-1.02,0.85-1.76h1.65c-0.19,1.34-0.66,2.32-1.41,2.94c-0.75,0.62-1.72,0.93-2.89,0.93
			c-1.32,0-2.37-0.48-3.16-1.45s-1.18-2.17-1.18-3.62c0-1.77,0.43-3.15,1.29-4.14c0.86-0.99,1.96-1.48,3.29-1.48
			C297.33,93.65,298.25,93.93,298.97,94.48z"/>
		<path class="st0" d="M301.91,90.19h1.63v8.04l4.35-4.29h2.17l-3.88,3.75l4.1,6.34h-2.17l-3.18-5.14l-1.39,1.35v3.79h-1.63V90.19z"
			/>
		<path class="st0" d="M318.28,94.48c0.71,0.55,1.14,1.5,1.29,2.86h-1.65c-0.1-0.62-0.33-1.14-0.69-1.55s-0.93-0.62-1.73-0.62
			c-1.08,0-1.85,0.53-2.32,1.58c-0.3,0.68-0.45,1.53-0.45,2.53c0,1.01,0.21,1.86,0.64,2.55c0.43,0.69,1.1,1.04,2.02,1.04
			c0.7,0,1.26-0.21,1.67-0.64s0.7-1.02,0.85-1.76h1.65c-0.19,1.34-0.66,2.32-1.41,2.94c-0.75,0.62-1.72,0.93-2.89,0.93
			c-1.32,0-2.37-0.48-3.16-1.45s-1.18-2.17-1.18-3.62c0-1.77,0.43-3.15,1.29-4.14c0.86-0.99,1.96-1.48,3.29-1.48
			C316.64,93.65,317.56,93.93,318.28,94.48z"/>
		<path class="st0" d="M321.26,90.15h1.7v5.17c0.4-0.51,0.76-0.87,1.08-1.07c0.55-0.36,1.23-0.54,2.05-0.54
			c1.46,0,2.46,0.51,2.98,1.54c0.28,0.56,0.42,1.34,0.42,2.33v6.48h-1.74v-6.36c0-0.74-0.09-1.29-0.28-1.63
			c-0.31-0.55-0.89-0.83-1.73-0.83c-0.7,0-1.34,0.24-1.91,0.73c-0.57,0.48-0.86,1.4-0.86,2.74v5.36h-1.7V90.15z"/>
		<path class="st0" d="M337.41,97.93c0.39-0.05,0.65-0.21,0.78-0.49c0.08-0.15,0.11-0.37,0.11-0.65c0-0.58-0.21-1-0.62-1.26
			c-0.41-0.26-1-0.39-1.76-0.39c-0.88,0-1.51,0.24-1.88,0.72c-0.21,0.27-0.34,0.66-0.4,1.18h-1.58c0.03-1.25,0.43-2.12,1.21-2.6
			c0.78-0.49,1.67-0.73,2.7-0.73c1.19,0,2.15,0.23,2.89,0.68c0.73,0.45,1.1,1.16,1.1,2.11v5.82c0,0.18,0.04,0.32,0.11,0.42
			s0.22,0.16,0.46,0.16c0.08,0,0.16,0,0.25-0.01c0.09-0.01,0.19-0.02,0.3-0.04v1.25c-0.26,0.08-0.47,0.12-0.6,0.14
			s-0.33,0.03-0.57,0.03c-0.58,0-1.01-0.21-1.27-0.62c-0.14-0.22-0.24-0.53-0.29-0.93c-0.35,0.45-0.84,0.85-1.49,1.18
			s-1.36,0.5-2.14,0.5c-0.94,0-1.7-0.28-2.3-0.85c-0.59-0.57-0.89-1.28-0.89-2.13c0-0.94,0.29-1.66,0.88-2.18
			c0.58-0.51,1.35-0.83,2.3-0.95L337.41,97.93z M333.84,102.52c0.36,0.28,0.78,0.42,1.27,0.42c0.6,0,1.18-0.14,1.73-0.41
			c0.94-0.46,1.41-1.21,1.41-2.25v-1.36c-0.21,0.13-0.47,0.24-0.8,0.33c-0.33,0.09-0.65,0.15-0.96,0.19l-1.03,0.13
			c-0.61,0.08-1.08,0.21-1.39,0.39c-0.52,0.29-0.79,0.77-0.79,1.41C333.3,101.85,333.48,102.24,333.84,102.52z"/>
		<path class="st0" d="M342.74,90.19h1.73v1.92h-1.73V90.19z M342.74,93.99h1.73v10.05h-1.73V93.99z"/>
		<path class="st0" d="M347.03,93.95h1.61v1.43c0.48-0.59,0.98-1.02,1.52-1.27c0.53-0.26,1.13-0.39,1.78-0.39
			c1.43,0,2.4,0.5,2.9,1.5c0.28,0.55,0.42,1.33,0.42,2.35v6.48h-1.73v-6.36c0-0.62-0.09-1.11-0.27-1.49
			c-0.3-0.63-0.85-0.94-1.64-0.94c-0.4,0-0.73,0.04-0.99,0.12c-0.47,0.14-0.87,0.42-1.23,0.83c-0.28,0.33-0.47,0.68-0.55,1.03
			c-0.08,0.36-0.13,0.86-0.13,1.52v5.29h-1.7V93.95z"/>
	</g>
	<g>
		<path class="st0" d="M422.27,90.59c1.36,0.72,2.19,1.99,2.49,3.8h-1.86c-0.22-1.01-0.68-1.75-1.38-2.21s-1.57-0.69-2.63-0.69
			c-1.26,0-2.31,0.48-3.17,1.44c-0.86,0.96-1.29,2.39-1.29,4.3c0,1.65,0.35,2.99,1.06,4.02s1.86,1.55,3.47,1.55
			c1.23,0,2.24-0.36,3.04-1.09c0.8-0.73,1.22-1.9,1.23-3.52h-4.34v-1.56h6.08v7.41h-1.21l-0.45-1.78c-0.62,0.7-1.18,1.18-1.66,1.45
			c-0.81,0.46-1.84,0.7-3.09,0.7c-1.61,0-3-0.53-4.16-1.59c-1.27-1.33-1.9-3.16-1.9-5.49c0-2.32,0.62-4.17,1.86-5.54
			c1.18-1.31,2.7-1.96,4.57-1.96C420.22,89.84,421.33,90.09,422.27,90.59z"/>
		<path class="st0" d="M433.25,97.93c0.39-0.05,0.65-0.21,0.78-0.49c0.08-0.15,0.11-0.37,0.11-0.65c0-0.58-0.21-1-0.62-1.26
			c-0.41-0.26-1-0.39-1.76-0.39c-0.88,0-1.51,0.24-1.88,0.72c-0.21,0.27-0.34,0.66-0.4,1.18h-1.58c0.03-1.25,0.43-2.12,1.21-2.6
			c0.78-0.49,1.67-0.73,2.7-0.73c1.19,0,2.15,0.23,2.89,0.68c0.73,0.45,1.1,1.16,1.1,2.11v5.82c0,0.18,0.04,0.32,0.11,0.42
			s0.22,0.16,0.46,0.16c0.08,0,0.16,0,0.25-0.01c0.09-0.01,0.19-0.02,0.3-0.04v1.25c-0.26,0.08-0.47,0.12-0.6,0.14
			s-0.33,0.03-0.57,0.03c-0.58,0-1.01-0.21-1.27-0.62c-0.14-0.22-0.24-0.53-0.29-0.93c-0.35,0.45-0.84,0.85-1.49,1.18
			s-1.36,0.5-2.14,0.5c-0.94,0-1.7-0.28-2.3-0.85c-0.59-0.57-0.89-1.28-0.89-2.13c0-0.94,0.29-1.66,0.88-2.18
			c0.58-0.51,1.35-0.83,2.3-0.95L433.25,97.93z M429.68,102.52c0.36,0.28,0.78,0.42,1.27,0.42c0.6,0,1.18-0.14,1.73-0.41
			c0.94-0.46,1.41-1.21,1.41-2.25v-1.36c-0.21,0.13-0.47,0.24-0.8,0.33c-0.33,0.09-0.65,0.15-0.96,0.19l-1.03,0.13
			c-0.61,0.08-1.08,0.21-1.39,0.39c-0.52,0.29-0.79,0.77-0.79,1.41C429.14,101.85,429.32,102.24,429.68,102.52z"/>
		<path class="st0" d="M438.58,93.95h1.68v1.43c0.4-0.5,0.77-0.86,1.09-1.08c0.56-0.38,1.19-0.58,1.9-0.58c0.8,0,1.45,0.2,1.94,0.59
			c0.28,0.23,0.53,0.56,0.75,1c0.38-0.54,0.82-0.94,1.33-1.2c0.51-0.26,1.08-0.39,1.72-0.39c1.36,0,2.28,0.49,2.77,1.47
			c0.26,0.53,0.4,1.24,0.4,2.13v6.72h-1.76v-7.01c0-0.67-0.17-1.13-0.5-1.39c-0.34-0.25-0.75-0.38-1.23-0.38
			c-0.67,0-1.24,0.22-1.72,0.67s-0.72,1.19-0.72,2.23v5.87h-1.73v-6.59c0-0.68-0.08-1.18-0.25-1.5c-0.26-0.47-0.74-0.71-1.44-0.71
			c-0.64,0-1.22,0.25-1.75,0.74c-0.52,0.5-0.79,1.4-0.79,2.7v5.36h-1.7V93.95z"/>
		<path class="st0" d="M454.66,90.19h1.73v1.92h-1.73V90.19z M454.66,93.99h1.73v10.05h-1.73V93.99z"/>
		<path class="st0" d="M458.95,93.95h1.61v1.43c0.48-0.59,0.98-1.02,1.52-1.27c0.53-0.26,1.13-0.39,1.78-0.39
			c1.43,0,2.4,0.5,2.9,1.5c0.28,0.55,0.42,1.33,0.42,2.35v6.48h-1.73v-6.36c0-0.62-0.09-1.11-0.27-1.49
			c-0.3-0.63-0.85-0.94-1.64-0.94c-0.4,0-0.73,0.04-0.99,0.12c-0.47,0.14-0.87,0.42-1.23,0.83c-0.28,0.33-0.47,0.68-0.55,1.03
			c-0.08,0.36-0.13,0.86-0.13,1.52v5.29h-1.7V93.95z"/>
		<path class="st0" d="M475.31,94.35c0.32,0.22,0.65,0.54,0.98,0.96v-1.27h1.56v9.18c0,1.28-0.19,2.29-0.56,3.04
			c-0.7,1.37-2.03,2.06-3.98,2.06c-1.08,0-2-0.24-2.73-0.73c-0.74-0.49-1.15-1.25-1.24-2.29h1.73c0.08,0.45,0.24,0.8,0.49,1.05
			c0.38,0.38,0.98,0.57,1.8,0.57c1.29,0,2.14-0.46,2.54-1.38c0.24-0.54,0.35-1.51,0.33-2.9c-0.34,0.52-0.75,0.9-1.22,1.15
			c-0.48,0.25-1.1,0.38-1.89,0.38c-1.09,0-2.04-0.39-2.86-1.17s-1.23-2.06-1.23-3.85c0-1.69,0.41-3.01,1.23-3.96
			c0.82-0.95,1.82-1.42,2.98-1.42C474.03,93.77,474.72,93.96,475.31,94.35z M475.52,96.17c-0.51-0.6-1.17-0.91-1.96-0.91
			c-1.19,0-2,0.56-2.44,1.68c-0.23,0.6-0.35,1.38-0.35,2.35c0,1.14,0.23,2,0.69,2.6c0.46,0.59,1.08,0.89,1.85,0.89
			c1.21,0,2.07-0.55,2.56-1.65c0.28-0.62,0.41-1.35,0.41-2.18C476.28,97.7,476.03,96.77,475.52,96.17z"/>
	</g>
	<g>
		<path class="st0" d="M517.61,99.57c0.04,0.79,0.22,1.42,0.54,1.91c0.6,0.92,1.66,1.38,3.17,1.38c0.68,0,1.3-0.1,1.85-0.3
			c1.08-0.39,1.62-1.09,1.62-2.09c0-0.75-0.23-1.29-0.69-1.61c-0.46-0.31-1.19-0.59-2.17-0.82l-1.82-0.42
			c-1.19-0.28-2.03-0.58-2.52-0.91c-0.85-0.58-1.28-1.44-1.28-2.59c0-1.24,0.42-2.27,1.26-3.06c0.84-0.8,2.02-1.2,3.56-1.2
			c1.41,0,2.61,0.35,3.6,1.05s1.48,1.82,1.48,3.36h-1.76c-0.09-0.74-0.28-1.31-0.58-1.71c-0.55-0.72-1.48-1.08-2.79-1.08
			c-1.06,0-1.82,0.23-2.29,0.7c-0.46,0.47-0.7,1.01-0.7,1.62c0,0.68,0.27,1.18,0.82,1.49c0.36,0.2,1.17,0.45,2.44,0.75l1.88,0.44
			c0.91,0.21,1.61,0.51,2.1,0.88c0.85,0.65,1.28,1.59,1.28,2.82c0,1.53-0.54,2.63-1.63,3.29c-1.09,0.66-2.35,0.99-3.79,0.99
			c-1.68,0-2.99-0.44-3.94-1.32c-0.95-0.87-1.42-2.06-1.4-3.55H517.61z"/>
		<path class="st0" d="M529.04,90.19h1.73v1.92h-1.73V90.19z M529.04,93.99h1.73v10.05h-1.73V93.99z"/>
		<path class="st0" d="M538.94,94.35c0.32,0.22,0.65,0.54,0.98,0.96v-1.27h1.56v9.18c0,1.28-0.19,2.29-0.56,3.04
			c-0.7,1.37-2.03,2.06-3.98,2.06c-1.08,0-2-0.24-2.73-0.73c-0.74-0.49-1.15-1.25-1.24-2.29h1.73c0.08,0.45,0.24,0.8,0.49,1.05
			c0.38,0.38,0.98,0.57,1.8,0.57c1.29,0,2.14-0.46,2.54-1.38c0.24-0.54,0.35-1.51,0.33-2.9c-0.34,0.52-0.75,0.9-1.22,1.15
			c-0.48,0.25-1.1,0.38-1.89,0.38c-1.09,0-2.04-0.39-2.86-1.17s-1.23-2.06-1.23-3.85c0-1.69,0.41-3.01,1.23-3.96
			c0.82-0.95,1.82-1.42,2.98-1.42C537.66,93.77,538.35,93.96,538.94,94.35z M539.15,96.17c-0.51-0.6-1.17-0.91-1.96-0.91
			c-1.19,0-2,0.56-2.44,1.68c-0.23,0.6-0.35,1.38-0.35,2.35c0,1.14,0.23,2,0.69,2.6c0.46,0.59,1.08,0.89,1.85,0.89
			c1.21,0,2.07-0.55,2.56-1.65c0.28-0.62,0.41-1.35,0.41-2.18C539.92,97.7,539.66,96.77,539.15,96.17z"/>
		<path class="st0" d="M544.07,93.95h1.61v1.43c0.48-0.59,0.98-1.02,1.52-1.27c0.53-0.26,1.13-0.39,1.78-0.39
			c1.43,0,2.4,0.5,2.9,1.5c0.28,0.55,0.42,1.33,0.42,2.35v6.48h-1.73v-6.36c0-0.62-0.09-1.11-0.27-1.49
			c-0.3-0.63-0.85-0.94-1.64-0.94c-0.4,0-0.73,0.04-0.99,0.12c-0.47,0.14-0.87,0.42-1.23,0.83c-0.28,0.33-0.47,0.68-0.55,1.03
			c-0.08,0.36-0.13,0.86-0.13,1.52v5.29h-1.7V93.95z"/>
		<path class="st0" d="M560.22,97.93c0.39-0.05,0.65-0.21,0.78-0.49c0.08-0.15,0.11-0.37,0.11-0.65c0-0.58-0.21-1-0.62-1.26
			c-0.41-0.26-1-0.39-1.76-0.39c-0.88,0-1.51,0.24-1.88,0.72c-0.21,0.27-0.34,0.66-0.4,1.18h-1.58c0.03-1.25,0.43-2.12,1.21-2.6
			c0.78-0.49,1.67-0.73,2.7-0.73c1.19,0,2.15,0.23,2.89,0.68c0.73,0.45,1.1,1.16,1.1,2.11v5.82c0,0.18,0.04,0.32,0.11,0.42
			s0.22,0.16,0.46,0.16c0.08,0,0.16,0,0.25-0.01c0.09-0.01,0.19-0.02,0.3-0.04v1.25c-0.26,0.08-0.47,0.12-0.6,0.14
			s-0.33,0.03-0.57,0.03c-0.58,0-1.01-0.21-1.27-0.62c-0.14-0.22-0.24-0.53-0.29-0.93c-0.35,0.45-0.84,0.85-1.49,1.18
			s-1.36,0.5-2.14,0.5c-0.94,0-1.7-0.28-2.3-0.85c-0.59-0.57-0.89-1.28-0.89-2.13c0-0.94,0.29-1.66,0.88-2.18
			c0.58-0.51,1.35-0.83,2.3-0.95L560.22,97.93z M556.64,102.52c0.36,0.28,0.78,0.42,1.27,0.42c0.6,0,1.18-0.14,1.73-0.41
			c0.94-0.46,1.41-1.21,1.41-2.25v-1.36c-0.21,0.13-0.47,0.24-0.8,0.33c-0.33,0.09-0.65,0.15-0.96,0.19l-1.03,0.13
			c-0.61,0.08-1.08,0.21-1.39,0.39c-0.52,0.29-0.79,0.77-0.79,1.41C556.11,101.85,556.29,102.24,556.64,102.52z"/>
		<path class="st0" d="M565.59,90.19h1.7v13.85h-1.7V90.19z"/>
		<path class="st0" d="M570.84,100.88c0.05,0.57,0.2,1,0.43,1.3c0.44,0.55,1.19,0.82,2.27,0.82c0.64,0,1.21-0.14,1.69-0.41
			s0.73-0.7,0.73-1.27c0-0.43-0.19-0.76-0.58-0.99c-0.25-0.14-0.74-0.3-1.48-0.48l-1.37-0.34c-0.88-0.21-1.52-0.45-1.94-0.72
			c-0.74-0.46-1.11-1.09-1.11-1.9c0-0.96,0.35-1.73,1.05-2.32c0.7-0.59,1.64-0.89,2.81-0.89c1.54,0,2.65,0.45,3.33,1.34
			c0.43,0.57,0.63,1.18,0.62,1.83h-1.6c-0.03-0.38-0.17-0.73-0.42-1.04c-0.4-0.44-1.09-0.67-2.08-0.67c-0.66,0-1.15,0.12-1.49,0.37
			s-0.51,0.57-0.51,0.97c0,0.44,0.22,0.79,0.67,1.05c0.26,0.16,0.63,0.29,1.13,0.41l1.14,0.27c1.24,0.3,2.08,0.58,2.5,0.86
			c0.66,0.43,0.99,1.12,0.99,2.05c0,0.9-0.35,1.67-1.04,2.33c-0.69,0.65-1.74,0.98-3.16,0.98c-1.52,0-2.6-0.34-3.23-1.02
			c-0.63-0.68-0.97-1.53-1.02-2.53H570.84z"/>
	</g>
	<g>
		<path class="st0" d="M602.45,91.2c0.96,0.92,1.49,1.97,1.59,3.15h-1.83c-0.2-0.89-0.61-1.6-1.22-2.12
			c-0.61-0.52-1.46-0.78-2.56-0.78c-1.34,0-2.42,0.48-3.25,1.44c-0.82,0.96-1.24,2.43-1.24,4.41c0,1.62,0.37,2.94,1.12,3.95
			s1.85,1.51,3.33,1.51c1.36,0,2.39-0.53,3.1-1.59c0.38-0.56,0.66-1.29,0.84-2.21h1.83c-0.16,1.46-0.7,2.68-1.6,3.67
			c-1.09,1.19-2.55,1.78-4.4,1.78c-1.59,0-2.93-0.49-4.01-1.46c-1.42-1.29-2.13-3.28-2.13-5.97c0-2.04,0.53-3.72,1.6-5.03
			c1.16-1.42,2.75-2.13,4.78-2.13C600.14,89.82,601.49,90.28,602.45,91.2z"/>
		<path class="st0" d="M606.42,93.95h1.61v1.75c0.13-0.34,0.46-0.75,0.97-1.24c0.52-0.49,1.11-0.73,1.78-0.73
			c0.03,0,0.08,0,0.16,0.01c0.08,0.01,0.2,0.02,0.39,0.04v1.79c-0.1-0.02-0.19-0.03-0.28-0.04c-0.08-0.01-0.18-0.01-0.28-0.01
			c-0.85,0-1.51,0.28-1.97,0.83s-0.69,1.18-0.69,1.9v5.81h-1.7V93.95z"/>
		<path class="st0" d="M619.11,93.95h1.88c-0.24,0.65-0.77,2.13-1.59,4.43c-0.62,1.74-1.13,3.15-1.55,4.25
			c-0.98,2.58-1.67,4.15-2.07,4.71s-1.09,0.85-2.07,0.85c-0.24,0-0.42-0.01-0.55-0.03c-0.13-0.02-0.29-0.05-0.48-0.1v-1.55
			c0.29,0.08,0.51,0.13,0.64,0.15c0.13,0.02,0.25,0.03,0.35,0.03c0.31,0,0.54-0.05,0.69-0.16s0.27-0.23,0.37-0.38
			c0.03-0.05,0.14-0.31,0.34-0.77c0.19-0.46,0.34-0.81,0.42-1.04l-3.73-10.4h1.92l2.71,8.23L619.11,93.95z"/>
		<path class="st0" d="M622.31,93.99h1.66v1.34c0.34-0.46,0.71-0.81,1.12-1.07c0.57-0.38,1.25-0.57,2.02-0.57
			c1.15,0,2.12,0.44,2.92,1.32s1.2,2.13,1.2,3.76c0,2.2-0.58,3.77-1.73,4.71c-0.73,0.6-1.58,0.9-2.56,0.9c-0.76,0-1.4-0.17-1.92-0.5
			c-0.3-0.19-0.64-0.51-1.01-0.97v5.16h-1.7V93.99z M628.7,101.91c0.53-0.66,0.79-1.65,0.79-2.97c0-0.8-0.12-1.5-0.35-2.07
			c-0.44-1.11-1.25-1.67-2.42-1.67c-1.18,0-1.99,0.59-2.42,1.76c-0.23,0.63-0.35,1.43-0.35,2.4c0,0.78,0.12,1.44,0.35,1.99
			c0.44,1.04,1.25,1.57,2.42,1.57C627.51,102.9,628.17,102.57,628.7,101.91z"/>
		<path class="st0" d="M633.53,91.13h1.72v2.82h1.61v1.39h-1.61v6.59c0,0.35,0.12,0.59,0.36,0.71c0.13,0.07,0.35,0.1,0.66,0.1
			c0.08,0,0.17,0,0.26-0.01c0.09,0,0.2-0.01,0.33-0.03v1.35c-0.19,0.06-0.4,0.1-0.61,0.12c-0.21,0.02-0.44,0.04-0.68,0.04
			c-0.79,0-1.33-0.2-1.61-0.61c-0.28-0.41-0.42-0.93-0.42-1.58v-6.68h-1.37v-1.39h1.37V91.13z"/>
		<path class="st0" d="M645.88,94.95c0.89,0.87,1.34,2.14,1.34,3.83c0,1.63-0.39,2.97-1.18,4.03c-0.79,1.06-2.01,1.59-3.66,1.59
			c-1.38,0-2.47-0.47-3.29-1.41c-0.81-0.94-1.22-2.2-1.22-3.78c0-1.7,0.43-3.05,1.28-4.05c0.85-1,2-1.51,3.45-1.51
			C643.89,93.65,644.98,94.09,645.88,94.95z M644.82,101.67c0.41-0.85,0.62-1.8,0.62-2.84c0-0.94-0.15-1.71-0.45-2.3
			c-0.47-0.93-1.29-1.39-2.44-1.39c-1.03,0-1.77,0.4-2.24,1.19c-0.47,0.79-0.7,1.75-0.7,2.86c0,1.07,0.23,1.97,0.7,2.68
			c0.47,0.72,1.21,1.07,2.22,1.07C643.65,102.94,644.41,102.52,644.82,101.67z"/>
		<path class="st0" d="M654.66,93.95h1.61v1.43c0.48-0.59,0.98-1.02,1.52-1.27c0.53-0.26,1.13-0.39,1.78-0.39
			c1.43,0,2.4,0.5,2.9,1.5c0.28,0.55,0.42,1.33,0.42,2.35v6.48h-1.73v-6.36c0-0.62-0.09-1.11-0.27-1.49
			c-0.3-0.63-0.85-0.94-1.64-0.94c-0.4,0-0.73,0.04-0.99,0.12c-0.47,0.14-0.87,0.42-1.23,0.83c-0.28,0.33-0.47,0.68-0.55,1.03
			c-0.08,0.36-0.13,0.86-0.13,1.52v5.29h-1.7V93.95z"/>
		<path class="st0" d="M671.64,94.22c0.67,0.34,1.18,0.77,1.53,1.31c0.34,0.51,0.56,1.1,0.67,1.78c0.1,0.47,0.15,1.21,0.15,2.23
			h-7.35c0.03,1.03,0.27,1.85,0.72,2.47c0.45,0.62,1.14,0.93,2.09,0.93c0.88,0,1.58-0.29,2.1-0.88c0.29-0.34,0.5-0.74,0.62-1.18
			h1.67c-0.04,0.37-0.19,0.78-0.44,1.24c-0.25,0.46-0.53,0.83-0.83,1.12c-0.51,0.5-1.14,0.84-1.9,1.02
			c-0.41,0.1-0.86,0.15-1.38,0.15c-1.25,0-2.31-0.46-3.18-1.37c-0.87-0.91-1.3-2.2-1.3-3.84c0-1.62,0.44-2.94,1.31-3.95
			s2.02-1.52,3.43-1.52C670.28,93.72,670.97,93.89,671.64,94.22z M672.25,98.19c-0.07-0.74-0.23-1.32-0.48-1.76
			c-0.46-0.82-1.23-1.23-2.31-1.23c-0.77,0-1.42,0.28-1.94,0.84c-0.52,0.56-0.8,1.28-0.83,2.14H672.25z"/>
		<path class="st0" d="M676.93,93.95l1.94,7.96l1.97-7.96h1.9l1.98,7.91l2.06-7.91h1.7l-2.93,10.1h-1.76l-2.06-7.82l-1.99,7.82
			h-1.76l-2.91-10.1H676.93z"/>
		<path class="st0" d="M691.1,100.88c0.05,0.57,0.2,1,0.43,1.3c0.44,0.55,1.19,0.82,2.27,0.82c0.64,0,1.21-0.14,1.69-0.41
			s0.73-0.7,0.73-1.27c0-0.43-0.19-0.76-0.58-0.99c-0.25-0.14-0.74-0.3-1.48-0.48l-1.37-0.34c-0.88-0.21-1.52-0.45-1.94-0.72
			c-0.74-0.46-1.11-1.09-1.11-1.9c0-0.96,0.35-1.73,1.05-2.32c0.7-0.59,1.64-0.89,2.81-0.89c1.54,0,2.65,0.45,3.33,1.34
			c0.43,0.57,0.63,1.18,0.62,1.83h-1.6c-0.03-0.38-0.17-0.73-0.42-1.04c-0.4-0.44-1.09-0.67-2.08-0.67c-0.66,0-1.15,0.12-1.49,0.37
			s-0.51,0.57-0.51,0.97c0,0.44,0.22,0.79,0.67,1.05c0.26,0.16,0.63,0.29,1.13,0.41l1.14,0.27c1.24,0.3,2.08,0.58,2.5,0.86
			c0.66,0.43,0.99,1.12,0.99,2.05c0,0.9-0.35,1.67-1.04,2.33c-0.69,0.65-1.74,0.98-3.16,0.98c-1.52,0-2.6-0.34-3.23-1.02
			c-0.63-0.68-0.97-1.53-1.02-2.53H691.1z"/>
	</g>
</g>
</svg>
